<svg width="36" height="36" fill="none" xmlns="http://www.w3.org/2000/svg"><path d="M18 0C8.03 0 0 8.03 0 18s8.03 18 18 18 18-8.03 18-18c0-1.939-.276-3.876-.968-5.676l-2.218 2.215A13.95 13.95 0 0133.231 18c0 8.446-6.785 15.23-15.231 15.23A15.187 15.187 0 012.77 18C2.77 9.554 9.553 2.77 18 2.77c4.154 0 7.753 1.66 10.523 4.291l1.939-1.939C27.277 1.937 22.846 0 18 0zm15.647 6.23L18 21.879l-5.955-5.955L10.11 18 18 25.891 35.584 8.308 33.647 6.23z" fill="url(#paint0_linear_177_1932)"/><defs><linearGradient id="paint0_linear_177_1932" x1="40.615" y1="0" x2="-.016" y2="35.998" gradientUnits="userSpaceOnUse"><stop offset=".25" stop-color="#3B768F"/><stop offset=".536" stop-color="#3EC6FF"/><stop offset=".818" stop-color="#3B768F"/></linearGradient></defs></svg>