<svg width="50" height="50" fill="none" xmlns="http://www.w3.org/2000/svg"><path d="M6 3C4.346 3 3 4.346 3 6v10c0 1.654 1.346 3 3 3h3v2a1 1 0 102 0v-2h5c1.654 0 3-1.346 3-3v-4h5a1 1 0 100-2h-5V6c0-1.654-1.346-3-3-3H6zm28 0c-1.654 0-3 1.346-3 3v4h-3a1 1 0 100 2h3v4c0 1.654 1.346 3 3 3h4v5a1 1 0 102 0v-5h4c1.654 0 3-1.346 3-3V6c0-1.654-1.346-3-3-3H34zM9.984 23.986A1 1 0 009 25v6H6c-1.654 0-3 1.346-3 3v10c0 1.654 1.346 3 3 3h10c1.654 0 3-1.346 3-3v-4h3a1 1 0 100-2h-3v-4c0-1.654-1.346-3-3-3h-5v-6a1 1 0 00-1.016-1.014zm29 3A1 1 0 0038 28v2h-4c-1.654 0-3 1.346-3 3v5h-5a1 1 0 100 2h5v3c0 1.654 1.346 3 3 3h10c1.654 0 3-1.346 3-3V33c0-1.654-1.346-3-3-3h-4v-2a1 1 0 00-1.016-1.014z" fill="url(#paint0_linear_177_1786)"/><defs><linearGradient id="paint0_linear_177_1786" x1="52.641" y1="3" x2="2.98" y2="46.998" gradientUnits="userSpaceOnUse"><stop offset=".25" stop-color="#3B768F"/><stop offset=".536" stop-color="#3EC6FF"/><stop offset=".818" stop-color="#3B768F"/></linearGradient></defs></svg>