<svg width="50" height="50" fill="none" xmlns="http://www.w3.org/2000/svg"><g clip-path="url(#clip0_177_1810)"><path d="M49.996 27.941c-.21-3.558-2.602-4.691-4.348-5.515-.91-.434-1.699-.805-1.984-1.383-.043-.563-.039-1.016-.035-1.531v-.078c.5-.582.922-1.532 1.121-2.391.441-.305.902-.906 1.05-2.113.071-.614-.07-1.11-.296-1.48.344-1.255.887-3.985-.258-5.825-.5-.809-1.27-1.348-2.242-1.578C42.383 5.367 41.316 5 39.934 5h-.004c-2.145.04-3.727.71-4.703 1.996-1.11 1.465-1.348 3.621-.711 6.422-.239.375-.391.887-.317 1.516.149 1.21.614 1.812 1.055 2.113.207.851.64 1.805 1.148 2.39v.079c.004.511.008.965-.035 1.523-.136.25-.418.473-.816.688-.938-2.547-3.125-3.555-4.778-4.317-.98-.45-1.832-.844-2.109-1.37-.043-.56-.039-1.009-.035-1.524l.004-.082c.496-.582.922-1.528 1.12-2.391.438-.3.903-.906 1.048-2.113.074-.61-.067-1.11-.293-1.48.34-1.255.883-3.985-.258-5.821-.504-.809-1.273-1.352-2.242-1.582C27.516.512 26.613.016 24.934.016c-2.149.043-3.735.71-4.707 1.996-1.11 1.46-1.344 3.613-.707 6.406-.239.375-.391.887-.317 1.516.145 1.21.61 1.812 1.055 2.113.203.851.64 1.805 1.144 2.39v.083c.004.515.008.964-.035 1.52-.277.526-1.133.92-2.117 1.37-1.66.762-3.855 1.77-4.797 4.317-.398-.215-.683-.438-.816-.688a16.718 16.718 0 01-.035-1.535v-.067c.503-.585.941-1.539 1.144-2.39.441-.305.906-.906 1.055-2.117.074-.63-.078-1.14-.317-1.516.637-2.797.399-4.957-.71-6.418C13.796 5.711 12.213 5.04 10.05 5c-1.371 0-2.434.367-3.055 1.047-.973.23-1.742.773-2.246 1.582-1.14 1.836-.598 4.566-.254 5.82-.226.371-.367.871-.297 1.485.149 1.207.61 1.808 1.051 2.113.2.86.621 1.805 1.121 2.387v.082c.004.515.008.968-.035 1.53-.285.575-1.078.95-1.984 1.38C2.605 23.25.215 24.383 0 28v11c0 .066.008.133.02.2.058.292 1.527 6.816 11.503 10.09 0 0 .165.144 1.457.296a31.665 31.665 0 01.036-1.902c.375-3.653 3.316-4.844 5.48-5.723 1.18-.477 2.293-.93 2.625-1.578.05-.617.043-1.117.04-1.684v-.113c-.556-.629-1.04-1.688-1.259-2.625-.468-.309-.976-.945-1.133-2.258-.081-.676.09-1.223.348-1.617-.699-3.035-.449-5.371.75-6.95C20.91 23.763 22.61 23.04 24.914 23c1.496 0 2.637.395 3.293 1.129 1.047.242 1.879.82 2.414 1.683 1.235 1.989.629 4.97.258 6.305.25.395.41.93.332 1.59-.16 1.309-.664 1.945-1.137 2.254-.215.937-.683 1.992-1.226 2.617l-.004.121c-.004.567-.008 1.063.039 1.684.336.652 1.445 1.105 2.617 1.578 2.168.883 5.117 2.082 5.469 5.723.043.53.031 1.539.023 1.976.942-.105 1-.2 1-.2 10.434-3.218 11.926-9.956 11.989-10.26.011-.067.019-.134.019-.2l-.004-11.059z" fill="url(#paint0_linear_177_1810)"/></g><defs><linearGradient id="paint0_linear_177_1810" x1="56.41" y1=".016" x2=".332" y2="50.054" gradientUnits="userSpaceOnUse"><stop offset=".25" stop-color="#3B768F"/><stop offset=".536" stop-color="#3EC6FF"/><stop offset=".818" stop-color="#3B768F"/></linearGradient><clipPath id="clip0_177_1810"><path fill="#fff" d="M0 0h50v50H0z"/></clipPath></defs></svg>