<svg width="50" height="50" fill="none" xmlns="http://www.w3.org/2000/svg"><path d="M27.094 4c-9.871 0-13.43 7.566-10.594 13.969-.316.21-.95.93-.844 2.187.317 2.313 1.258 2.969 1.781 2.969.211 2.203 1.672 4.707 2.407 5.125 0 1.574.117 1.258-.094 2.938a3.816 3.816 0 01-.969 1.53L24.094 35h1.812l5.313-2.125c-.485-.453-.856-.988-1.063-1.594-.105-1.68-.125-1.437-.125-2.906.735-.422 2.121-3.055 2.438-5.156.629 0 1.57-.63 1.781-2.938.105-1.261-.316-2.113-.844-2.218 1.89-2.415 1.575-11.97-5.25-11.97L27.094 4zm-10.25 30.063C12.473 36.367 5 37.437 5 45c0 0 0 1 1 1h16l2-7-.906-2.25-6.25-2.688zm16.406.156l-6.344 2.531L26 39l2 7h16c1.031 0 1-1 1-1 0-7.477-7.324-8.563-11.75-10.781z" fill="url(#paint0_linear_177_1780)"/><defs><linearGradient id="paint0_linear_177_1780" x1="50.128" y1="4" x2="3.058" y2="43.717" gradientUnits="userSpaceOnUse"><stop offset=".25" stop-color="#3B768F"/><stop offset=".536" stop-color="#3EC6FF"/><stop offset=".818" stop-color="#3B768F"/></linearGradient></defs></svg>