<svg width="50" height="50" fill="none" xmlns="http://www.w3.org/2000/svg"><path d="M19 3v1h-4v43h4v-1h1v1h1v-1h1v1h1v-1h1v1h1v-1h1v1h1v-1h1v1h1v-1h1v1h4V4h-4V3H19zm-6 4.168L3 11.332V47h4v-2h1v2h1v-2h1v2h1v-2h1v2h1V7.168zM19 8h1v1h-1V8zm2 0h1v1h-1V8zm2 0h1v1h-1V8zm2 0h1v1h-1V8zm2 0h1v1h-1V8zm2 0h1v1h-1V8zm-10 2h1v1h-1v-1zm2 0h1v1h-1v-1zm2 0h1v1h-1v-1zm2 0h1v1h-1v-1zm2 0h1v1h-1v-1zm2 0h1v1h-1v-1zm-17 1.734V14h-1v-1.879l1-.387zM19 12h1v1h-1v-1zm2 0h1v1h-1v-1zm2 0h1v1h-1v-1zm2 0h1v1h-1v-1zm2 0h1v1h-1v-1zm2 0h1v1h-1v-1zm7 0v4h1v1h-1v1h1v1h-1v1h1v1h-1v1h1v1h-1v1h1v1h-1v1h1v1h-1v1h1v1h-1v1h1v1h-1v1h1v1h-1v1h1v1h-1v1h1v1h-1v1h1v1h-1v1h1v1h-1v1h1v1h-1v1h1v1h-1v1h1v1h1v-1h2v1h1v-1h2v1h4V12H36zm-26 .5V14H9v-1.113l1-.387zm-2 .766V14H7v-.348l1-.386zM19 14h1v1h-1v-1zm2 0h1v1h-1v-1zm2 0h1v1h-1v-1zm2 0h1v1h-1v-1zm2 0h1v1h-1v-1zm2 0h1v1h-1v-1zM7 15h1v2H7v-2zm2 0h1v2H9v-2zm2 0h1v2h-1v-2zm8 1h1v1h-1v-1zm2 0h1v1h-1v-1zm2 0h1v1h-1v-1zm2 0h1v1h-1v-1zm2 0h1v1h-1v-1zm2 0h1v1h-1v-1zm9 0h2v1h-2v-1zm3 0h2v1h-2v-1zM7 18h1v2H7v-2zm2 0h1v2H9v-2zm2 0h1v2h-1v-2zm8 0h1v1h-1v-1zm2 0h1v1h-1v-1zm2 0h1v1h-1v-1zm2 0h1v1h-1v-1zm2 0h1v1h-1v-1zm2 0h1v1h-1v-1zm9 0h2v1h-2v-1zm3 0h2v1h-2v-1zm-22 2h1v1h-1v-1zm2 0h1v1h-1v-1zm2 0h1v1h-1v-1zm2 0h1v1h-1v-1zm2 0h1v1h-1v-1zm2 0h1v1h-1v-1zm9 0h2v1h-2v-1zm3 0h2v1h-2v-1zM7 21h1v2H7v-2zm2 0h1v2H9v-2zm2 0h1v2h-1v-2zm8 1h1v1h-1v-1zm2 0h1v1h-1v-1zm2 0h1v1h-1v-1zm2 0h1v1h-1v-1zm2 0h1v1h-1v-1zm2 0h1v1h-1v-1zm9 0h2v1h-2v-1zm3 0h2v1h-2v-1zM7 24h1v2H7v-2zm2 0h1v2H9v-2zm2 0h1v2h-1v-2zm8 0h1v1h-1v-1zm2 0h1v1h-1v-1zm2 0h1v1h-1v-1zm2 0h1v1h-1v-1zm2 0h1v1h-1v-1zm2 0h1v1h-1v-1zm9 0h2v1h-2v-1zm3 0h2v1h-2v-1zm-22 2h1v1h-1v-1zm2 0h1v1h-1v-1zm2 0h1v1h-1v-1zm2 0h1v1h-1v-1zm2 0h1v1h-1v-1zm2 0h1v1h-1v-1zm9 0h2v1h-2v-1zm3 0h2v1h-2v-1zM7 27h1v2H7v-2zm2 0h1v2H9v-2zm2 0h1v2h-1v-2zm8 1h1v1h-1v-1zm2 0h1v1h-1v-1zm2 0h1v1h-1v-1zm2 0h1v1h-1v-1zm2 0h1v1h-1v-1zm2 0h1v1h-1v-1zm9 0h2v1h-2v-1zm3 0h2v1h-2v-1zM7 30h1v2H7v-2zm2 0h1v2H9v-2zm2 0h1v2h-1v-2zm8 0h1v1h-1v-1zm2 0h1v1h-1v-1zm2 0h1v1h-1v-1zm2 0h1v1h-1v-1zm2 0h1v1h-1v-1zm2 0h1v1h-1v-1zm9 0h2v1h-2v-1zm3 0h2v1h-2v-1zm-22 2h1v1h-1v-1zm2 0h1v1h-1v-1zm2 0h1v1h-1v-1zm2 0h1v1h-1v-1zm2 0h1v1h-1v-1zm2 0h1v1h-1v-1zm9 0h2v1h-2v-1zm3 0h2v1h-2v-1zM7 33h1v2H7v-2zm2 0h1v2H9v-2zm2 0h1v2h-1v-2zm8 1h1v1h-1v-1zm2 0h1v1h-1v-1zm2 0h1v1h-1v-1zm2 0h1v1h-1v-1zm2 0h1v1h-1v-1zm2 0h1v1h-1v-1zm9 0h2v1h-2v-1zm3 0h2v1h-2v-1zM7 36h1v2H7v-2zm2 0h1v2H9v-2zm2 0h1v2h-1v-2zm8 0h1v1h-1v-1zm2 0h1v1h-1v-1zm2 0h1v1h-1v-1zm2 0h1v1h-1v-1zm2 0h1v1h-1v-1zm2 0h1v1h-1v-1zm9 0h2v1h-2v-1zm3 0h2v1h-2v-1zm-22 2h1v1h-1v-1zm2 0h1v1h-1v-1zm2 0h1v1h-1v-1zm2 0h1v1h-1v-1zm2 0h1v1h-1v-1zm2 0h1v1h-1v-1zm9 0h2v1h-2v-1zm3 0h2v1h-2v-1zM7 39h1v2H7v-2zm2 0h1v2H9v-2zm2 0h1v2h-1v-2zm8 1h1v1h-1v-1zm2 0h1v1h-1v-1zm2 0h1v1h-1v-1zm2 0h1v1h-1v-1zm2 0h1v1h-1v-1zm2 0h1v1h-1v-1zm9 0h2v1h-2v-1zm3 0h2v1h-2v-1zM7 42h1v2H7v-2zm2 0h1v2H9v-2zm2 0h1v2h-1v-2zm8 0h1v1h-1v-1zm2 0h1v1h-1v-1zm2 0h1v1h-1v-1zm2 0h1v1h-1v-1zm2 0h1v1h-1v-1zm2 0h1v1h-1v-1zm9 0h2v1h-2v-1zm3 0h2v1h-2v-1zm-22 2h1v1h-1v-1zm2 0h1v1h-1v-1zm2 0h1v1h-1v-1zm2 0h1v1h-1v-1zm2 0h1v1h-1v-1zm2 0h1v1h-1v-1zm9 0h2v1h-2v-1zm3 0h2v1h-2v-1z" fill="url(#paint0_linear_177_1816)"/><defs><linearGradient id="paint0_linear_177_1816" x1="52.641" y1="3" x2="2.98" y2="46.998" gradientUnits="userSpaceOnUse"><stop offset=".25" stop-color="#3B768F"/><stop offset=".536" stop-color="#3EC6FF"/><stop offset=".818" stop-color="#3B768F"/></linearGradient></defs></svg>