<svg width="50" height="50" fill="none" xmlns="http://www.w3.org/2000/svg"><path d="M17 0c-.55 0-1 .45-1 1v8c0 .55.45 1 1 1h16a1 1 0 001-1V1a1 1 0 00-1-1H17zM8 2C6.348 2 5 3.348 5 5v42c0 1.652 1.348 3 3 3h34c1.652 0 3-1.348 3-3V5c0-1.652-1.348-3-3-3h-6v4h5v40H9V6h5V2H8zm3 6v36h28V8h-3v1c0 1.652-1.348 3-3 3H17c-1.652 0-3-1.348-3-3V8h-3zm4 9h8v8h-8v-8zm2 2v4h4v-4h-4zm9 1h9v2h-9v-2zM15 30h8v8h-8v-8zm2 2v4h4v-4h-4zm1 1h2v2h-2v-2zm8 0h9v2h-9v-2z" fill="url(#paint0_linear_177_1798)"/><defs><linearGradient id="paint0_linear_177_1798" x1="50.128" y1="0" x2="-3.509" y2="38.017" gradientUnits="userSpaceOnUse"><stop offset=".25" stop-color="#3B768F"/><stop offset=".536" stop-color="#3EC6FF"/><stop offset=".818" stop-color="#3B768F"/></linearGradient></defs></svg>