<svg width="50" height="50" fill="none" xmlns="http://www.w3.org/2000/svg"><path d="M5 4c-.55 0-1 .45-1 1v10c0 .55.45 1 1 1h40c.55 0 1-.45 1-1V5c0-.55-.45-1-1-1H5zm5 5c.55 0 1 .45 1 1s-.45 1-1 1-1-.45-1-1 .45-1 1-1zm4 0c.55 0 1 .45 1 1s-.45 1-1 1-1-.45-1-1 .45-1 1-1zm4 0c.55 0 1 .45 1 1s-.45 1-1 1-1-.45-1-1 .45-1 1-1zM4 19v26a1 1 0 001 1h40a1 1 0 001-1V19h-2v25H6V19H4zm6 0a1 1 0 00-1 1v20a1 1 0 001 1h13a1 1 0 001-1V20a1 1 0 00-1-1H10zm17 0v2h14v-2H27zm0 5v2h14v-2H27zm0 5v2h14v-2H27zm0 5v2h14v-2H27zm0 5v2h14v-2H27z" fill="url(#paint0_linear_177_1792)"/><defs><linearGradient id="paint0_linear_177_1792" x1="51.385" y1="4" x2="3.981" y2="45.998" gradientUnits="userSpaceOnUse"><stop offset=".25" stop-color="#3B768F"/><stop offset=".536" stop-color="#3EC6FF"/><stop offset=".818" stop-color="#3B768F"/></linearGradient></defs></svg>