<svg width="33" height="33" fill="none" xmlns="http://www.w3.org/2000/svg"><path d="M11.55 5.94c-5.642 0-10.23 4.588-10.23 10.23S5.908 26.4 11.55 26.4s10.23-4.588 10.23-10.23S17.192 5.94 11.55 5.94zm5.61 5.94a.66.66 0 01.467 1.127l-7.92 7.92a.658.658 0 01-.933 0l-3.3-3.3a.66.66 0 11.933-.934l2.833 2.834 7.454-7.454a.658.658 0 01.466-.193zm7.92 3.96a.66.66 0 100 1.32H33v-1.32h-7.92z" fill="url(#paint0_linear_177_1845)"/><defs><linearGradient id="paint0_linear_177_1845" x1="37.062" y1="5.94" x2="14.916" y2="36.32" gradientUnits="userSpaceOnUse"><stop offset=".25" stop-color="#3B768F"/><stop offset=".536" stop-color="#3EC6FF"/><stop offset=".818" stop-color="#3B768F"/></linearGradient></defs></svg>