<svg width="31" height="25" fill="none" xmlns="http://www.w3.org/2000/svg"><path d="M13 0C5.82 0 0 5.033 0 11.242c0 2.735 1.132 5.24 3.01 7.188.038.097 1.001 2.63-1.852 5.214a.512.512 0 00-.158.373.52.52 0 00.146.362.494.494 0 00.461.137c2.876-.174 5.336-1.632 6.838-2.756 1.42.46 2.95.724 4.555.724 7.18 0 13-5.033 13-11.242C26 5.033 20.18 0 13 0z" fill="url(#paint0_linear_177_2255)"/><path d="M5.352 9.966v4.057H3.448V9.966H2.056V8.358h4.688v1.608H5.352zm.84 4.057l2.232-5.665h2.024l2.208 5.665h-2.072l-.296-.832h-1.8l-.28.832H6.192zm3.672-2.288l-.456-1.4-.464 1.4h.92zm3.195 2.288V8.358h1.92v4.032h1.88v1.633h-3.8zm7.775 0l-1.512-2.256h-.016v2.256H17.45V8.358h1.848v2.088h.016l1.512-2.088h2.24l-2.128 2.592 2.232 3.073h-2.336z" fill="#08262B"/><defs><linearGradient id="paint0_linear_177_2255" x1="29.333" y1="0" x2="1.501" y2="26.138" gradientUnits="userSpaceOnUse"><stop offset=".25" stop-color="#3B768F"/><stop offset=".536" stop-color="#3EC6FF"/><stop offset=".818" stop-color="#3B768F"/></linearGradient></defs></svg>