<svg width="25" height="18" fill="none" xmlns="http://www.w3.org/2000/svg"><path d="M0 0v18h25V0H0zm1 1h23v1.281c-.223.194-9.091 7.905-9.827 8.542-.646.56-1.334.678-1.673.678-.34 0-1.027-.118-1.673-.678L8.35 8.67l-.01-.013-.002.002L1 2.281V1zm0 2.603l6.541 5.686L1 14.457V3.603zm23 0v10.856l-6.555-5.158L24 3.603zM8.309 9.957c.617.537 1.722 1.498 1.864 1.62.854.74 1.766.922 2.327.922.56 0 1.473-.182 2.327-.922l1.85-1.608L24 15.732V17H1v-1.268l7.309-5.775z" fill="url(#paint0_linear_177_2236)"/><defs><linearGradient id="paint0_linear_177_2236" x1="12.5" y1="0" x2="12.5" y2="18" gradientUnits="userSpaceOnUse"><stop stop-color="#4ABCEC"/><stop offset="1" stop-color="#4A8BEC"/></linearGradient></defs></svg>