<svg width="30" height="30" fill="none" xmlns="http://www.w3.org/2000/svg"><path d="M15 3C8.373 3 3 8.373 3 15c0 2.251.632 4.35 1.71 6.15L3.108 27l5.975-1.568A11.935 11.935 0 0015 27c6.627 0 12-5.373 12-12S21.627 3 15 3zm-4.107 6.402c.195 0 .395 0 .568.008.214.005.447.02.67.514.265.586.842 2.056.916 2.205.074.149.126.324.023.52-.098.2-.149.32-.293.498-.149.171-.312.385-.447.515-.149.15-.303.313-.13.61.171.296.769 1.27 1.652 2.056 1.135 1.014 2.092 1.326 2.39 1.475.298.149.47.125.643-.075.177-.195.743-.864.943-1.162.195-.298.394-.246.664-.148.274.098 1.735.818 2.033.967.298.149.494.223.569.343.077.125.077.72-.17 1.415-.247.693-1.46 1.363-2.004 1.41-.55.05-1.061.246-3.568-.74-3.024-1.191-4.931-4.289-5.08-4.489-.15-.195-1.211-1.61-1.211-3.07 0-1.465.768-2.183 1.037-2.48a1.09 1.09 0 01.795-.372z" fill="url(#paint0_linear_177_2246)"/><defs><linearGradient id="paint0_linear_177_2246" x1="30.077" y1="3" x2="2.989" y2="26.999" gradientUnits="userSpaceOnUse"><stop offset=".25" stop-color="#3B768F"/><stop offset=".536" stop-color="#3EC6FF"/><stop offset=".818" stop-color="#3B768F"/></linearGradient></defs></svg>