<svg width="26" height="26" fill="none" xmlns="http://www.w3.org/2000/svg"><path d="M6.313.031l1.78 5.844v3.813h1.5v-4L11.314.03h-1.5l-.938 3.844h-.094L7.813.031h-1.5zm6.906 2.344c-.602 0-1.082.172-1.438.5-.355.324-.53.762-.53 1.313v3.687c0 .605.183 1.113.53 1.469.352.36.793.531 1.375.531.602 0 1.094-.184 1.438-.531.344-.348.5-.828.5-1.438V4.22c0-.543-.18-.969-.531-1.313-.348-.347-.793-.531-1.344-.531zm3 .188V8.53c0 .426.094.727.25.938.156.21.383.312.687.312.247 0 .489-.07.75-.219a2.9 2.9 0 00.782-.656v.781H20V2.564h-1.312V7.97a1.825 1.825 0 01-.407.375c-.148.101-.277.156-.375.156-.12 0-.226-.02-.28-.094-.06-.074-.063-.21-.063-.375v-5.47h-1.344zm-3.063 1.062c.176 0 .332.031.438.125.11.098.156.223.156.375v3.906c0 .192-.05.332-.156.438-.105.11-.258.156-.438.156-.175 0-.312-.05-.406-.156-.098-.106-.125-.242-.125-.438V4.125a.5.5 0 01.156-.375c.102-.094.215-.125.375-.125zM13 11.156c-2.594-.004-5.137.02-7.625.125-1.738 0-3.156 1.403-3.156 3.125a51.205 51.205 0 00-.156 4.094 50.94 50.94 0 00.156 4.094c0 1.722 1.418 3.125 3.156 3.125 2.488.101 5.031.129 7.625.125a174.9 174.9 0 007.625-.125c1.738 0 3.156-1.403 3.156-3.125.106-1.364.16-2.73.157-4.094a49.154 49.154 0 00-.157-4.094c0-1.722-1.418-3.125-3.156-3.125-2.484-.105-5.027-.129-7.625-.125zm-9.25 2.219h4.594c.082 0 .156.074.156.156v1.406a.162.162 0 01-.156.157H6.938v8.094c0 .082-.043.156-.125.156h-1.5a.162.162 0 01-.157-.157v-8.093H3.75c-.082 0-.125-.074-.125-.156V13.53c0-.082.043-.156.125-.156zm9.656 0h1.344c.082 0 .156.074.156.156v2.719c.11-.102.227-.184.344-.25.227-.125.457-.188.688-.188.468 0 .812.188 1.062.532.238.332.375.797.375 1.406v3.969c0 .539-.113.957-.344 1.25-.238.304-.593.468-1.03.468-.278 0-.524-.074-.75-.187a1.545 1.545 0 01-.345-.219v.157a.162.162 0 01-.156.156h-1.344a.162.162 0 01-.156-.157v-9.656c0-.082.074-.156.156-.156zm6.813 2.344c.648 0 1.18.203 1.531.594.352.39.531.945.531 1.656v1.843c0 .082-.074.125-.156.125H19.75v1.22c0 .437.047.609.094.687.039.062.105.156.312.156.168 0 .286-.047.344-.125.027-.043.094-.2.094-.719v-.5c0-.082.074-.156.156-.156h1.375c.082 0 .156.074.156.156v.532c0 .769-.207 1.355-.562 1.75-.356.398-.89.593-1.594.593-.637 0-1.133-.199-1.5-.625-.363-.418-.562-.996-.562-1.718v-3.22c0-.655.191-1.175.593-1.593.403-.418.93-.656 1.563-.656zm-11.875.187h1.312c.082 0 .157.074.157.156v5.47c0 .179.011.253.03.28.009.012.044.063.157.063.04 0 .125-.016.281-.125.13-.086.243-.191.344-.313v-5.375c0-.082.074-.156.156-.156h1.344c.082 0 .125.074.125.156v7.125c0 .082-.043.157-.125.157h-1.344a.162.162 0 01-.156-.157v-.406a2.64 2.64 0 01-.531.407c-.29.164-.563.25-.844.25-.355 0-.629-.122-.812-.375-.176-.239-.25-.579-.25-1.032v-5.968c0-.082.074-.157.156-.157zm6.906 1.344c-.05.008-.101.035-.156.063a.736.736 0 00-.188.156v4.312c.079.082.145.153.22.188a.56.56 0 00.25.062c.167 0 .234-.07.25-.093.038-.051.062-.168.062-.407v-3.687c0-.203-.02-.371-.094-.469a.335.335 0 00-.344-.125zm4.938.031c-.16 0-.278.035-.344.125-.047.067-.094.23-.094.563v.562h.844v-.562c0-.328-.043-.489-.094-.563-.062-.086-.16-.125-.312-.125z" fill="url(#paint0_linear_177_2244)"/><defs><linearGradient id="paint0_linear_177_2244" x1="26.743" y1=".031" x2="-1.44" y2="21.191" gradientUnits="userSpaceOnUse"><stop offset=".25" stop-color="#3B768F"/><stop offset=".536" stop-color="#3EC6FF"/><stop offset=".818" stop-color="#3B768F"/></linearGradient></defs></svg>