<svg width="39" height="39" fill="none" xmlns="http://www.w3.org/2000/svg"><g clip-path="url(#clip0_177_1738)"><path d="M.634 0A.78.78 0 000 .78v31.2c0 .43.35.78.78.78h12.48V31.2H1.56V1.56h35.88V31.2h-11.7v1.56h12.48c.43 0 .78-.35.78-.78V.78c0-.43-.35-.78-.78-.78H.634zM7.8 7.02v1.56h23.4V7.02H7.8zm0 3.9v1.56h23.4v-1.56H7.8zm0 3.9v1.56h23.4v-1.56H7.8zm11.627 3.827c-.817 0-1.466.487-1.877 1.146-.762-.244-1.593-.171-2.218.365-.634.543-.829 1.347-.731 2.12-.744.312-1.32.903-1.487 1.658v.073c-.095.753.24 1.442.78 1.975-.354.707-.485 1.526-.073 2.242.231.405.594.67 1 .853v9.141a.782.782 0 001.17.658l3.51-2.096 3.51 2.096a.78.78 0 001.17-.658v-9.457a2.1 2.1 0 00.487-.464c.009-.024.018-.048.024-.073.4-.7.308-1.496-.024-2.194.697-.514 1.157-1.252 1.072-2.023a.675.675 0 00-.024-.073c-.177-.789-.762-1.362-1.487-1.682.088-.764-.08-1.557-.707-2.096-.649-.554-1.478-.57-2.218-.366-.414-.636-1.036-1.145-1.877-1.145zm0 1.56c.357 0 .615.213.756.585a.78.78 0 00.487.463c.012.006.116.01.146.024.04.013.01.025.098.025.073.027.076.073.22.073a.81.81 0 00.365-.098c.414-.207.704-.204 1 .05a.811.811 0 01.243.95.78.78 0 00.17.78c.031.06.065.161.171.268a.78.78 0 00.39.22c.436.097.604.286.707.706.03.36-.027.555-.585.756a.78.78 0 00-.512.731v.317a.78.78 0 00.147.439c.222.314.24.68.121.926-.24.305-.588.475-.877.439a.776.776 0 00-.634.219l-.244.22a.772.772 0 00-.219.56c0 .414-.162.625-.512.756h-.024c0-.01-.128.024-.244.024-.207 0-.414-.098-.634-.317a.78.78 0 00-.536-.22h-.39a.772.772 0 00-.56.22c-.314.314-.573.405-.878.293-.299-.113-.512-.457-.512-.756a.78.78 0 00-.244-.56l-.22-.22a.787.787 0 00-.657-.22.8.8 0 01-.78-.39c-.14-.246-.113-.645.122-.974a.78.78 0 00.146-.44v-.316a.781.781 0 00-.415-.682c-.207-.12-.374-.51-.365-.805.107-.43.302-.67.634-.707a.786.786 0 00.463-.22c.119-.118.167-.24.195-.292a.78.78 0 00.122-.755.811.811 0 01.243-.95c.299-.257.707-.257.927-.098a.78.78 0 00.804.048h.024a.639.639 0 00.074-.024.784.784 0 00.536-.56c.06-.238.374-.488.731-.488zm3.193 9.652v6.996l-2.73-1.633a.776.776 0 00-.78 0l-2.73 1.633v-6.191c.183.173.4.317.658.414.774.29 1.518.01 2.12-.414.007-.003.02.003.025 0 .006.003.018-.003.025 0 .374.286.825.536 1.389.536.14 0 .442-.003.804-.146.012-.012.034-.018.05-.025.02-.009.026.013.048 0v-.024a2.2 2.2 0 001.121-1.146z" fill="url(#paint0_linear_177_1738)"/></g><defs><linearGradient id="paint0_linear_177_1738" x1="44" y1="0" x2="0" y2="39" gradientUnits="userSpaceOnUse"><stop offset=".25" stop-color="#3B768F"/><stop offset=".536" stop-color="#3EC6FF"/><stop offset=".818" stop-color="#3B768F"/></linearGradient><clipPath id="clip0_177_1738"><path fill="#fff" d="M0 0h39v39H0z"/></clipPath></defs></svg>