<svg width="40" height="40" fill="none" xmlns="http://www.w3.org/2000/svg"><path d="M20 .8C13.144.8 7.394 5.625 5.95 12.05c.147-.016.3-.05.45-.05.41 0 .803.084 1.175.2C8.931 6.59 13.978 2.4 20 2.4c6.019 0 11.069 4.19 12.425 9.8.372-.116.763-.2 1.175-.2.15 0 .303.034.45.05C32.606 5.625 26.853.8 20 .8zM6.4 13.6A2.405 2.405 0 004 16v12c0 1.322 1.078 2.4 2.4 2.4 1.322 0 2.4-1.078 2.4-2.4V16c0-1.322-1.078-2.4-2.4-2.4zm27.2 0a2.405 2.405 0 00-2.4 2.4v12c0 1.322 1.078 2.4 2.4 2.4 1.322 0 2.4-1.078 2.4-2.4V16c0-1.322-1.078-2.4-2.4-2.4zM2.4 16.1C.956 17.26 0 19.434 0 22c0 2.566.956 4.74 2.4 5.9V16.1zm35.2 0v11.8c1.444-1.16 2.4-3.334 2.4-5.9 0-2.566-.956-4.74-2.4-5.9zm-5.125 15.725c-.706 2.172-2.54 3.375-5.275 3.375h-.875c.053.26.075.525.075.8s-.022.54-.075.8h.875c3.594 0 6.081-1.806 6.9-4.85-.169.022-.328.05-.5.05-.394 0-.766-.069-1.125-.175zM18.4 33.6A2.405 2.405 0 0016 36c0 1.322 1.078 2.4 2.4 2.4h4c1.322 0 2.4-1.078 2.4-2.4 0-1.322-1.078-2.4-2.4-2.4h-4z" fill="#fff"/></svg>