<svg width="9" height="9" fill="none" xmlns="http://www.w3.org/2000/svg"><g clip-path="url(#clip0_177_2172)"><path d="M1.875 0v1.5h.75V0h-.75zm4.5 0v1.5h.75V0h-.75zm-6 1.125A.376.376 0 000 1.5v1.125C0 2.832.168 3 .375 3v6h8.25V3A.376.376 0 009 2.625V1.5a.376.376 0 00-.375-.375H7.5v.75H6v-.75H3v.75H1.5v-.75H.375zM1.125 3h6.75v5.25h-6.75V3zm.75.75v.75h.75v-.75h-.75zm1.5 0v.75h.75v-.75h-.75zm1.5 0v.75h.75v-.75h-.75zm1.5 0v.75h.75v-.75h-.75zm-4.5 1.5V6h.75v-.75h-.75zm1.5 0V6h.75v-.75h-.75zm1.5 0V6h.75v-.75h-.75zm1.5 0V6h.75v-.75h-.75zm-4.5 1.5v.75h.75v-.75h-.75zm1.5 0v.75h.75v-.75h-.75zm1.5 0v.75h.75v-.75h-.75zm1.5 0v.75h.75v-.75h-.75z" fill="#fff"/></g><defs><clipPath id="clip0_177_2172"><path fill="#fff" d="M0 0h9v9H0z"/></clipPath></defs></svg>