<svg width="25" height="25" fill="none" xmlns="http://www.w3.org/2000/svg"><path d="M5.92 1.494c-.385-.031-.813.08-1.207.358a17.3 17.3 0 00-1.8 1.511 8.843 8.843 0 00-.94 1.03c-.26.343-.487.658-.473 1.115.013.41.054 1.623.927 3.482.873 1.858 2.567 4.406 5.87 7.711 3.304 3.305 5.853 4.998 7.71 5.871 1.858.873 3.073.914 3.483.928.455.014.77-.213 1.113-.473.344-.26.694-.591 1.03-.941a17.506 17.506 0 001.51-1.799c.552-.787.46-1.717-.155-2.148-.387-.272-3.944-2.639-4.479-2.967-.543-.332-1.168-.182-1.726.113-.44.233-1.63.914-1.969 1.11-.256-.163-1.226-.81-3.314-2.897-2.09-2.088-2.735-3.058-2.897-3.314.195-.34.875-1.524 1.11-1.971.293-.557.457-1.188.107-1.734-.147-.233-.813-1.247-1.484-2.264a141.765 141.765 0 00-1.479-2.213V2a1.262 1.262 0 00-.937-.506zm-.092 1.022a.551.551 0 01.218.072c.08.111.782 1.162 1.454 2.178.671 1.017 1.357 2.06 1.476 2.25.02.029.047.361-.148.73v.002c-.221.42-1.25 2.219-1.25 2.219l-.143.252.147.25s.767 1.295 3.209 3.736c2.443 2.441 3.738 3.211 3.738 3.211l.25.146.252-.142s1.795-1.027 2.219-1.25c.369-.193.7-.168.74-.145a446.18 446.18 0 014.424 2.932c.008.006.216.322-.088.756h-.002a17.285 17.285 0 01-1.412 1.68 8.34 8.34 0 01-.91.835c-.274.206-.518.27-.479.272-.426-.014-1.365-.023-3.09-.834-1.724-.809-4.185-2.428-7.43-5.674-3.242-3.242-4.86-5.703-5.671-7.43-.809-1.724-.819-2.664-.832-3.087.002.039.066-.207.271-.48.205-.274.508-.599.834-.913a17.533 17.533 0 011.68-1.412v.002a.771.771 0 01.543-.156z" fill="url(#paint0_linear_177_1726)"/><defs><linearGradient id="paint0_linear_177_1726" x1="12.503" y1="1.489" x2="12.503" y2="23.501" gradientUnits="userSpaceOnUse"><stop stop-color="#4ABCEC"/><stop offset="1" stop-color="#4A8BEC"/></linearGradient></defs></svg>